<svg width="186" height="64" viewBox="0 0 186 64" fill="none" xmlns="http://www.w3.org/2000/svg">
<path fill-rule="evenodd" clip-rule="evenodd" d="M42.5137 51.0876L72.8554 51.0876V40.8386L52.728 40.8386V34.8468L72.8554 34.8468V8.35035L36.5423 8.35035V0L26.328 0V8.35693L0 8.35693L0 18.606H0.0720243L26.1578 51.0843L26.3149 50.9267V51.0876H36.5161V18.606H62.6149V24.5977H42.5137V51.0876ZM26.3149 35.1425L12.8923 18.606H26.3149L26.3149 35.1425Z" fill="#6638B6"/>
<path d="M87.5254 8.2749H102.859C106.703 8.2749 109.912 9.56292 112.488 12.139C115.064 14.715 116.352 17.9248 116.352 21.7684C116.352 25.612 115.064 28.8218 112.488 31.3979C109.912 33.9739 106.703 35.2619 102.859 35.2619H91.8188V51.2088H87.5254V8.2749ZM91.8188 31.2139H102.859C105.517 31.2139 107.704 30.3348 109.422 28.5765C111.18 26.8183 112.059 24.5489 112.059 21.7684C112.059 19.0288 111.18 16.7799 109.422 15.0217C107.704 13.2225 105.517 12.323 102.859 12.323H91.8188V31.2139Z" fill="white"/>
<path d="M147.008 26.5525V20.5417H151.056V51.2088H147.008V45.1981C144.186 49.6959 140.056 51.9448 134.618 51.9448C130.243 51.9448 126.501 50.391 123.394 47.2834C120.327 44.1758 118.794 40.3731 118.794 35.8753C118.794 31.3774 120.327 27.5747 123.394 24.4671C126.501 21.3595 130.243 19.8057 134.618 19.8057C140.056 19.8057 144.186 22.0546 147.008 26.5525ZM126.338 44.5234C128.669 46.8541 131.531 48.0194 134.925 48.0194C138.319 48.0194 141.181 46.8541 143.512 44.5234C145.842 42.1109 147.008 39.2282 147.008 35.8753C147.008 32.4815 145.842 29.6192 143.512 27.2885C141.181 24.9169 138.319 23.7311 134.925 23.7311C131.531 23.7311 128.669 24.9169 126.338 27.2885C124.007 29.6192 122.842 32.4815 122.842 35.8753C122.842 39.2282 124.007 42.1109 126.338 44.5234Z" fill="white"/>
<path d="M171.771 46.2407L181.707 20.5417H186L172.875 54.0302C171.648 57.1378 169.931 59.5298 167.723 61.2063C165.556 62.9236 163.143 63.6801 160.485 63.4757V59.6729C164.165 60.1227 166.966 57.9965 168.888 53.2942L169.685 51.3928L155.947 20.5417H160.24L171.771 46.2407Z" fill="white"/>
</svg>
