<svg width="245" height="245" viewBox="0 0 245 245" fill="none" xmlns="http://www.w3.org/2000/svg">
<rect width="245" height="245" fill="#E0E0E0"/>
<g id="iPhone 13 mini - 3" clip-path="url(#clip0_0_1)">
<rect width="375" height="6281" transform="translate(-65 -944)" fill="#191919"/>
<g id="Group 447">
<g id="&#208;&#161;&#208;&#187;&#208;&#190;&#208;&#185; 1">
<g id="Group">
<path id="Vector" d="M180.415 34.1872L185.973 38.2207C187.605 39.4079 189.21 40.1498 190.802 40.4466C192.394 40.7569 193.864 40.622 195.227 40.0554C196.589 39.4888 197.749 38.5445 198.707 37.209C199.692 35.86 200.232 34.4435 200.34 32.9866C200.447 31.5297 200.11 30.0863 199.328 28.6698C198.545 27.2534 197.331 25.9583 195.699 24.7712L184.745 16.8391L170.621 36.3456L176.004 40.2442L180.388 34.1872H180.415ZM193.824 30.9496C193.999 31.7321 193.824 32.501 193.257 33.2564C192.718 33.9984 192.057 34.4166 191.261 34.484C190.465 34.5515 189.642 34.2817 188.765 33.6476L183.544 29.8569L187.025 25.041L192.246 28.8317C193.109 29.4657 193.635 30.1672 193.81 30.9361L193.824 30.9496Z" fill="white"/>
<path id="Vector_2" d="M191.841 52.9092L196.67 51.4793L204.67 61.0437L202.404 65.5493L206.963 70.9858L218.403 47.1355L212.777 40.4175L187.281 47.4862L191.841 52.9227V52.9092ZM202.282 49.82L211.739 47.0141L207.314 55.8096L202.296 49.8065L202.282 49.82Z" fill="white"/>
<path id="Vector_3" d="M208.541 76.0459L211.482 82.0489L220.277 77.7321L238.044 81.5498L234.806 74.9262L223.367 72.4845L228.452 61.9488L225.201 55.3118L217.256 71.783L208.541 76.0459Z" fill="white"/>
<path id="Vector_4" d="M243.428 106.021L219.375 107.019L219.645 113.656L227.118 113.346L227.402 120.212C227.482 122.222 227.901 123.949 228.643 125.379C229.385 126.822 230.396 127.888 231.691 128.616C232.986 129.345 234.443 129.655 236.089 129.588C237.762 129.52 239.205 129.075 240.419 128.252C241.633 127.429 242.564 126.269 243.185 124.785C243.805 123.288 244.075 121.534 243.994 119.524L243.428 106.021ZM237.964 121.871C237.465 122.492 236.75 122.829 235.806 122.856C234.888 122.896 234.147 122.627 233.607 122.047C233.067 121.467 232.757 120.644 232.717 119.578L232.447 113.13L238.382 112.887L238.652 119.335C238.693 120.401 238.463 121.251 237.978 121.871H237.964Z" fill="white"/>
<path id="Vector_5" d="M219.537 133.904L223.651 136.804L221.115 149.012L216.178 150.024L214.734 156.972L240.541 151.157L242.321 142.578L220.98 126.956L219.537 133.904ZM228.427 140.176L236.48 145.856L226.835 147.839L228.427 140.176Z" fill="white"/>
<path id="Vector_6" d="M211.727 161.343L208.826 167.359L217.662 171.608L225.648 187.918L228.859 181.267L223.692 170.786L235.118 168.249L238.329 161.599L220.468 165.551L211.727 161.343Z" fill="white"/>
<path id="Vector_7" d="M189.049 193.381L193.932 199.047L188.725 203.526C187.201 204.834 186.108 206.237 185.447 207.708C184.786 209.178 184.57 210.649 184.8 212.092C185.029 213.535 185.69 214.898 186.769 216.139C187.862 217.407 189.103 218.257 190.506 218.702C191.909 219.147 193.393 219.147 194.944 218.702C196.509 218.27 198.047 217.393 199.571 216.071L209.81 207.249L194.094 188.997L189.062 193.327L189.049 193.381ZM196.387 211.795C195.578 212.497 194.769 212.834 193.973 212.834C193.177 212.834 192.475 212.47 191.855 211.755C191.248 211.053 191.005 210.311 191.126 209.529C191.234 208.746 191.693 207.991 192.516 207.303L197.399 203.094L201.271 207.6L196.387 211.809V211.795Z" fill="white"/>
<path id="Vector_8" d="M173.104 205.847L173.374 210.878L162.218 216.45L158.36 213.212L152.006 216.382L172.565 233.029L180.402 229.117L179.444 202.69L173.091 205.86L173.104 205.847ZM166.683 220.213L173.684 216.72L174.21 226.567L166.669 220.227L166.683 220.213Z" fill="white"/>
<path id="Vector_9" d="M146.732 216.691L140.216 218.148L142.347 227.712L134.496 244.103L141.7 242.498L146.732 231.935L155.797 239.341L163 237.736L148.849 226.161L146.732 216.691Z" fill="white"/>
<path id="Vector_10" d="M106.085 226.122L99.3403 224.814C97.3708 224.436 95.5901 224.436 94.0253 224.827C92.4604 225.219 91.1789 225.96 90.1806 227.04C89.1824 228.119 88.5348 229.468 88.2246 231.087C87.9008 232.732 88.0087 234.23 88.5214 235.606C89.034 236.982 89.9513 238.142 91.2598 239.1C92.5684 240.058 94.2141 240.719 96.1837 241.096L109.458 243.659L114.031 220.025L107.502 218.757L106.085 226.095V226.122ZM95.2933 234.715C94.8077 234.095 94.6458 233.313 94.8347 232.382C95.01 231.478 95.4417 230.83 96.1297 230.426C96.8177 230.021 97.6811 229.927 98.7333 230.129L105.074 231.356L103.94 237.184L97.6001 235.957C96.5479 235.754 95.779 235.336 95.2933 234.702V234.715Z" fill="white"/>
<path id="Vector_11" d="M87.8872 213.981L84.0965 217.313L72.8189 211.998L72.9808 206.966L66.5595 203.944L66.1953 230.398L74.1274 234.135L94.295 217.029L87.8737 214.008L87.8872 213.981ZM72.3063 227.673L72.63 217.825L79.7123 221.157L72.3063 227.659V227.673Z" fill="white"/>
<path id="Vector_12" d="M57.8318 195.755L51.6534 203.363L33.9141 207.343L39.6473 212.011L51.0463 209.42L50.8575 221.13L56.5907 225.784L56.8875 207.491L63.012 199.977L57.8318 195.755Z" fill="white"/>
<path id="Vector_13" d="M37.0712 170.488L30.4206 173.928L27.264 167.817C26.3466 166.037 25.2405 164.647 23.9589 163.649C22.6774 162.664 21.3014 162.111 19.831 162.003C18.3606 161.895 16.9037 162.219 15.4332 162.974C13.9493 163.743 12.8297 164.755 12.0742 166.01C11.3188 167.264 10.9681 168.708 11.0355 170.326C11.103 171.945 11.5886 173.645 12.5194 175.439L18.7248 187.445L40.1199 176.397L37.0712 170.488ZM16.9981 170.772C17.1869 170.003 17.6996 169.396 18.5359 168.964C19.3588 168.546 20.1278 168.478 20.8697 168.775C21.6117 169.072 22.2322 169.692 22.7178 170.637L25.6856 176.37L20.411 179.095L17.4433 173.362C16.9576 172.404 16.7957 171.554 16.9981 170.772Z" fill="white"/>
<path id="Vector_14" d="M28.6806 152.116L23.7298 151.199L20.9239 139.058L24.9844 136.076L23.3791 129.169L2.38867 145.263L4.35821 153.802L30.286 159.036L28.6806 152.129V152.116ZM17.9831 150.146L8.28379 148.366L16.2159 142.525L17.9831 150.146Z" fill="white"/>
<path id="Vector_15" d="M24.255 123.989L24.3629 117.312L14.5692 117.15L0.472149 105.683L0.35074 113.062L9.44299 120.428L0.12141 127.51L0 134.889L14.5557 123.827L24.255 123.989Z" fill="white"/>
<path id="Vector_16" d="M31.3101 85.3134L24.4976 82.2108L27.344 75.9514C28.1804 74.1168 28.5851 72.39 28.5716 70.7712C28.5581 69.1525 28.1399 67.736 27.317 66.5084C26.4942 65.2808 25.334 64.3365 23.8366 63.6485C22.3123 62.9605 20.8284 62.7042 19.3714 62.8796C17.9145 63.0685 16.5655 63.6755 15.3379 64.7277C14.1104 65.78 13.0716 67.2234 12.2487 69.058L6.65039 81.3609L28.5716 91.33L31.3236 85.2865L31.3101 85.3134ZM16.9163 71.6751C17.3614 70.7038 17.9415 70.0428 18.67 69.719C19.3984 69.3953 20.1808 69.4223 21.0442 69.8135C21.8806 70.1912 22.4202 70.7712 22.6495 71.5267C22.8788 72.2821 22.7709 73.159 22.3258 74.1302L19.6547 80.0119L14.2453 77.5567L16.9163 71.6886V71.6751Z" fill="white"/>
<path id="Vector_17" d="M40.5642 67.3173L38.2034 62.8656L46.0006 53.1258L50.857 54.4613L55.2952 48.917L29.6508 42.4148L24.1738 49.2542L36.126 72.8482L40.5642 67.3038V67.3173ZM35.4784 57.6989L30.8649 48.9844L40.3618 51.588L35.4649 57.6989H35.4784Z" fill="white"/>
<path id="Vector_18" d="M59.5039 16.3647L53.6493 20.8569L53.5279 32.5527L42.1828 29.6524L36.3281 34.158L54.054 38.6772L59.9626 46.3665L65.2506 42.306L59.2881 34.5223L59.5039 16.3647Z" fill="white"/>
<path id="Vector_19" d="M94.6459 27.9815L92.8653 20.7104L99.5428 19.0646C101.499 18.5789 103.104 17.837 104.359 16.8252C105.613 15.8135 106.477 14.5994 106.922 13.1964C107.367 11.7935 107.394 10.2961 107.003 8.69077C106.598 7.07198 105.883 5.73647 104.831 4.71123C103.779 3.6725 102.47 3.01149 100.878 2.68773C99.2865 2.37746 97.5193 2.4584 95.5632 2.93055L82.4375 6.15466L88.1842 29.5328L94.6324 27.941L94.6459 27.9815ZM96.4401 8.23211C97.4788 7.97581 98.3557 8.02977 99.0572 8.39399C99.7586 8.75822 100.231 9.40574 100.46 10.3096C100.676 11.1999 100.555 11.9823 100.109 12.6299C99.6507 13.2774 98.9088 13.736 97.87 13.9923L91.5972 15.5302L90.1807 9.75648L96.4536 8.21862L96.4401 8.23211Z" fill="white"/>
<path id="Vector_20" d="M130.893 24.2981L137.989 24.406L127.44 0.164503L118.671 0.0161133L107.34 23.9204L114.436 24.0283L116.513 19.4417L128.978 19.644L130.893 24.2981ZM118.914 14.1131L122.975 5.12882L126.738 14.2346L118.914 14.1131Z" fill="white"/>
<path id="Vector_21" d="M142.926 26.3224L149.401 27.9682L151.802 18.4578L166.196 7.36899L159.033 5.56133L149.792 12.7245L145.03 2.02696L137.867 0.205811L145.3 16.9199L142.926 26.3224Z" fill="white"/>
</g>
</g>
<path id="Vector_22" fill-rule="evenodd" clip-rule="evenodd" d="M131.05 162.03H179.263V145.738H147.281V136.213H179.263V94.0939H121.562V80.8201H105.331V94.1044H63.4961V110.396H63.6105L105.061 162.024L105.31 161.774V162.03H121.52V110.396H162.991V119.921H131.05V162.03ZM105.31 136.683L83.9819 110.396H105.31V136.683Z" fill="#6638B6"/>
</g>
</g>
<defs>
<clipPath id="clip0_0_1">
<rect width="375" height="6281" fill="white" transform="translate(-65 -944)"/>
</clipPath>
</defs>
</svg>
